<?xml version="1.0" encoding="UTF-8" standalone="no"?>
<!-- Created with Inkscape (http://www.inkscape.org/) -->

<svg
   xmlns:dc="http://purl.org/dc/elements/1.1/"
   xmlns:cc="http://creativecommons.org/ns#"
   xmlns:rdf="http://www.w3.org/1999/02/22-rdf-syntax-ns#"
   xmlns:svg="http://www.w3.org/2000/svg"
   xmlns="http://www.w3.org/2000/svg"
   xmlns:sodipodi="http://sodipodi.sourceforge.net/DTD/sodipodi-0.dtd"
   xmlns:inkscape="http://www.inkscape.org/namespaces/inkscape"
   width="1549.6062"
   height="1020.4724"
   id="svg2"
   version="1.1"
   inkscape:version="0.92.2 (5c3e80d, 2017-08-06)"
   sodipodi:docname="frontplatte only holes quer converted ink.svg">
  <defs
     id="defs4" />
  <sodipodi:namedview
     id="base"
     pagecolor="#ffffff"
     bordercolor="#666666"
     borderopacity="1.0"
     inkscape:pageopacity="0.0"
     inkscape:pageshadow="2"
     inkscape:zoom="0.70710678"
     inkscape:cx="732.85892"
     inkscape:cy="506.89943"
     inkscape:document-units="mm"
     inkscape:current-layer="layer3"
     showgrid="false"
     units="mm"
     inkscape:snap-grids="true"
     guidetolerance="10000"
     inkscape:window-width="1920"
     inkscape:window-height="1017"
     inkscape:window-x="-8"
     inkscape:window-y="-8"
     inkscape:window-maximized="1"
     inkscape:snap-to-guides="true"
     showguides="true"
     inkscape:guide-bbox="true">
    <inkscape:grid
       type="xygrid"
       id="grid2987"
       empspacing="5"
       visible="true"
       enabled="true"
       snapvisiblegridlinesonly="false"
       units="mm"
       spacingx="0.37795276"
       spacingy="0.37795276"
       dotted="false"
       originx="0"
       originy="0" />
  </sodipodi:namedview>
  <metadata
     id="metadata7">
    <rdf:RDF>
      <cc:Work
         rdf:about="">
        <dc:format>image/svg+xml</dc:format>
        <dc:type
           rdf:resource="http://purl.org/dc/dcmitype/StillImage" />
        <dc:title></dc:title>
      </cc:Work>
    </rdf:RDF>
  </metadata>
  <g
     inkscape:label="Ebene 1"
     inkscape:groupmode="layer"
     id="layer1"
     transform="translate(0,-102.04704)" />
  <g
     inkscape:groupmode="layer"
     id="layer2"
     inkscape:label="back"
     transform="translate(0,-102.04704)" />
  <g
     inkscape:groupmode="layer"
     id="layer3"
     inkscape:label="front"
     transform="translate(0,-102.04704)">
    <path
       style="fill:#000000;stroke:none;stroke-width:1.06666672"
       d="m 967.55905,154.96048 v 64.25197 h -64.25197 v -64.25197 z"
       id="rect3844-9-88"
       inkscape:connector-curvature="0" />
    <path
       style="fill:#000000;stroke:none;stroke-width:1.06666672"
       d="m 967.55905,249.44868 v 64.25197 h -64.25197 v -64.25197 z"
       id="rect3844-0-2-0"
       inkscape:connector-curvature="0" />
    <path
       style="fill:#000000;stroke:none;stroke-width:1.06666672"
       d="m 967.55911,343.93685 v 64.25197 h -64.25196 v -64.25197 z"
       id="rect3844-9-7-0"
       inkscape:connector-curvature="0" />
    <path
       style="fill:#000000;stroke:none;stroke-width:1.06666672"
       d="m 967.55905,438.42507 v 64.25196 h -64.25197 v -64.25196 z"
       id="rect3844-0-2-9-7"
       inkscape:connector-curvature="0" />
    <path
       style="fill:#000000;stroke:none;stroke-width:1.06666672"
       d="m 967.55911,532.91325 v 64.25197 h -64.25196 v -64.25197 z"
       id="rect3844-9-5-5"
       inkscape:connector-curvature="0" />
    <path
       style="fill:#000000;stroke:none;stroke-width:1.06666672"
       d="M 967.55911,627.40143 V 691.6534 H 903.30715 V 627.40143 Z"
       id="rect3844-0-2-98-2"
       inkscape:connector-curvature="0" />
    <path
       style="fill:#000000;stroke:none;stroke-width:1.06666672"
       d="m 967.55911,721.88958 v 64.25198 h -64.25196 v -64.25198 z"
       id="rect3844-9-7-7-98"
       inkscape:connector-curvature="0" />
    <path
       style="fill:#000000;stroke:none;stroke-width:1.06666672"
       d="m 967.55905,816.3778 v 64.25197 H 903.30708 V 816.3778 Z"
       id="rect3844-0-2-9-2-2"
       inkscape:connector-curvature="0" />
    <path
       style="fill:#000000;stroke:none;stroke-width:1.06666672"
       d="m 967.55911,910.86595 v 64.25197 h -64.25196 v -64.25197 z"
       id="rect3844-9-7-7-9-8"
       inkscape:connector-curvature="0" />
    <path
       style="fill:#000000;stroke:none;stroke-width:1.06666672"
       d="m 967.55905,1005.3542 v 64.252 h -64.25197 v -64.252 z"
       id="rect3844-0-2-9-2-4-2"
       inkscape:connector-curvature="0" />
    <path
       style="fill:#000000;fill-opacity:1;fill-rule:evenodd;stroke:none;stroke-width:1.11199522"
       d="m 336.37802,191.81053 c -2.60909,0 -4.72413,-2.11504 -4.72413,-4.72407 0,-2.60902 2.11504,-4.72406 4.72413,-4.72406 2.60898,0 4.72403,2.11504 4.72403,4.72406 0,2.60903 -2.11505,4.72407 -4.72403,4.72407 z"
       id="path3290"
       inkscape:connector-curvature="0" />
    <path
       style="fill:#000000;fill-opacity:1;fill-rule:evenodd;stroke:none;stroke-width:1.11230087"
       d="m 68.031523,191.81183 c -2.609805,0 -4.725431,-2.11561 -4.725431,-4.72536 0,-2.60974 2.115626,-4.72536 4.725431,-4.72536 2.609699,0 4.725325,2.11562 4.725325,4.72536 0,2.60975 -2.115626,4.72536 -4.725325,4.72536 z"
       id="path3290-4"
       inkscape:connector-curvature="0" />
    <path
       style="fill:#000000;fill-rule:evenodd;stroke:none;stroke-width:1.06666672"
       d="m 326.92913,183.30693 v 7.55905 H 77.480322 v -7.55905 z"
       id="rect3288-0"
       inkscape:connector-curvature="0" />
    <path
       style="fill:#000000;fill-opacity:1;fill-rule:evenodd;stroke:none;stroke-width:1.11230087"
       d="m 336.37798,286.30001 c -2.60981,0 -4.72543,-2.11561 -4.72543,-4.72536 0,-2.60974 2.11562,-4.72536 4.72543,-4.72536 2.6097,0 4.72532,2.11562 4.72532,4.72536 0,2.60975 -2.11562,4.72536 -4.72532,4.72536 z"
       id="path3290-7"
       inkscape:connector-curvature="0" />
    <path
       style="fill:#000000;fill-opacity:1;fill-rule:evenodd;stroke:none;stroke-width:1.11230087"
       d="m 68.031523,286.30001 c -2.609805,0 -4.725431,-2.11561 -4.725431,-4.72536 0,-2.60974 2.115626,-4.72536 4.725431,-4.72536 2.609699,0 4.725325,2.11562 4.725325,4.72536 0,2.60975 -2.115626,4.72536 -4.725325,4.72536 z"
       id="path3290-4-7"
       inkscape:connector-curvature="0" />
    <path
       style="fill:#000000;fill-rule:evenodd;stroke:none;stroke-width:1.06666672"
       d="m 326.92887,277.79511 v 7.55907 H 77.480062 v -7.55907 z"
       id="rect3288-0-9"
       inkscape:connector-curvature="0" />
    <path
       style="fill:#000000;fill-opacity:1;fill-rule:evenodd;stroke:none;stroke-width:1.11230087"
       d="m 336.37798,380.78822 c -2.60981,0 -4.72543,-2.11562 -4.72543,-4.72536 0,-2.60975 2.11562,-4.72537 4.72543,-4.72537 2.6097,0 4.72532,2.11562 4.72532,4.72537 0,2.60974 -2.11562,4.72536 -4.72532,4.72536 z"
       id="path3290-5"
       inkscape:connector-curvature="0" />
    <path
       style="fill:#000000;fill-opacity:1;fill-rule:evenodd;stroke:none;stroke-width:1.11230087"
       d="m 68.031523,380.78822 c -2.609805,0 -4.725431,-2.11562 -4.725431,-4.72536 0,-2.60975 2.115626,-4.72537 4.725431,-4.72537 2.609699,0 4.725325,2.11562 4.725325,4.72537 0,2.60974 -2.115626,4.72536 -4.725325,4.72536 z"
       id="path3290-4-0"
       inkscape:connector-curvature="0" />
    <path
       style="fill:#000000;fill-rule:evenodd;stroke:none;stroke-width:1.06666672"
       d="m 326.92913,372.2833 v 7.55906 H 77.480322 v -7.55906 z"
       id="rect3288-0-2"
       inkscape:connector-curvature="0" />
    <path
       style="fill:#000000;fill-opacity:1;fill-rule:evenodd;stroke:none;stroke-width:1.11230087"
       d="m 336.37798,475.2764 c -2.60981,0 -4.72543,-2.11562 -4.72543,-4.72536 0,-2.60975 2.11562,-4.72536 4.72543,-4.72536 2.6097,0 4.72532,2.11561 4.72532,4.72536 0,2.60974 -2.11562,4.72536 -4.72532,4.72536 z"
       id="path3290-7-4"
       inkscape:connector-curvature="0" />
    <path
       style="fill:#000000;fill-opacity:1;fill-rule:evenodd;stroke:none;stroke-width:1.11230087"
       d="m 68.031523,475.2764 c -2.609805,0 -4.725431,-2.11562 -4.725431,-4.72536 0,-2.60975 2.115626,-4.72536 4.725431,-4.72536 2.609699,0 4.725325,2.11561 4.725325,4.72536 0,2.60974 -2.115626,4.72536 -4.725325,4.72536 z"
       id="path3290-4-7-8"
       inkscape:connector-curvature="0" />
    <path
       style="fill:#000000;fill-rule:evenodd;stroke:none;stroke-width:1.06666672"
       d="m 326.92913,466.77152 v 7.55905 H 77.480322 v -7.55905 z"
       id="rect3288-0-9-6"
       inkscape:connector-curvature="0" />
    <path
       style="fill:#000000;fill-opacity:1;fill-rule:evenodd;stroke:none;stroke-width:1.11230087"
       d="m 336.37798,569.76459 c -2.60981,0 -4.72543,-2.11562 -4.72543,-4.72536 0,-2.60975 2.11562,-4.72536 4.72543,-4.72536 2.6097,0 4.72532,2.11561 4.72532,4.72536 0,2.60974 -2.11562,4.72536 -4.72532,4.72536 z"
       id="path3290-6"
       inkscape:connector-curvature="0" />
    <path
       style="fill:#000000;fill-opacity:1;fill-rule:evenodd;stroke:none;stroke-width:1.11230087"
       d="m 68.031523,569.76459 c -2.609805,0 -4.725431,-2.11562 -4.725431,-4.72536 0,-2.60975 2.115626,-4.72536 4.725431,-4.72536 2.609699,0 4.725325,2.11561 4.725325,4.72536 0,2.60974 -2.115626,4.72536 -4.725325,4.72536 z"
       id="path3290-4-1"
       inkscape:connector-curvature="0" />
    <path
       style="fill:#000000;fill-rule:evenodd;stroke:none;stroke-width:1.06666672"
       d="m 326.92913,561.2597 v 7.55905 H 77.480322 v -7.55905 z"
       id="rect3288-0-3"
       inkscape:connector-curvature="0" />
    <path
       style="fill:#000000;fill-opacity:1;fill-rule:evenodd;stroke:none;stroke-width:1.11230087"
       d="m 336.37808,664.25278 c -2.6098,0 -4.72543,-2.11561 -4.72543,-4.72536 0,-2.60974 2.11563,-4.72536 4.72543,-4.72536 2.6097,0 4.72533,2.11562 4.72533,4.72536 0,2.60975 -2.11563,4.72536 -4.72533,4.72536 z"
       id="path3290-7-6"
       inkscape:connector-curvature="0" />
    <path
       style="fill:#000000;fill-opacity:1;fill-rule:evenodd;stroke:none;stroke-width:1.11230087"
       d="m 68.03163,664.25278 c -2.609805,0 -4.725431,-2.11561 -4.725431,-4.72536 0,-2.60974 2.115626,-4.72536 4.725431,-4.72536 2.609699,0 4.725325,2.11562 4.725325,4.72536 0,2.60975 -2.115626,4.72536 -4.725325,4.72536 z"
       id="path3290-4-7-0"
       inkscape:connector-curvature="0" />
    <path
       style="fill:#000000;fill-rule:evenodd;stroke:none;stroke-width:1.06666672"
       d="m 326.92927,655.74785 v 7.55905 H 77.480452 v -7.55905 z"
       id="rect3288-0-9-66"
       inkscape:connector-curvature="0" />
    <path
       style="fill:#000000;fill-opacity:1;fill-rule:evenodd;stroke:none;stroke-width:1.11230087"
       d="m 336.37808,758.74096 c -2.6098,0 -4.72543,-2.11561 -4.72543,-4.72536 0,-2.60974 2.11563,-4.72536 4.72543,-4.72536 2.6097,0 4.72533,2.11562 4.72533,4.72536 0,2.60975 -2.11563,4.72536 -4.72533,4.72536 z"
       id="path3290-5-6"
       inkscape:connector-curvature="0" />
    <path
       style="fill:#000000;fill-opacity:1;fill-rule:evenodd;stroke:none;stroke-width:1.11230087"
       d="m 68.03163,758.74096 c -2.609805,0 -4.725431,-2.11561 -4.725431,-4.72536 0,-2.60974 2.115626,-4.72536 4.725431,-4.72536 2.609699,0 4.725325,2.11562 4.725325,4.72536 0,2.60975 -2.115626,4.72536 -4.725325,4.72536 z"
       id="path3290-4-0-3"
       inkscape:connector-curvature="0" />
    <path
       style="fill:#000000;fill-rule:evenodd;stroke:none;stroke-width:1.06666672"
       d="m 326.92913,750.23606 v 7.55907 H 77.480436 v -7.55907 z"
       id="rect3288-0-2-7"
       inkscape:connector-curvature="0" />
    <path
       style="fill:#000000;fill-opacity:1;fill-rule:evenodd;stroke:none;stroke-width:1.11230087"
       d="m 336.37808,853.22913 c -2.6098,0 -4.72543,-2.11561 -4.72543,-4.72536 0,-2.60974 2.11563,-4.72536 4.72543,-4.72536 2.6097,0 4.72533,2.11562 4.72533,4.72536 0,2.60975 -2.11563,4.72536 -4.72533,4.72536 z"
       id="path3290-7-4-1"
       inkscape:connector-curvature="0" />
    <path
       style="fill:#000000;fill-opacity:1;fill-rule:evenodd;stroke:none;stroke-width:1.11230087"
       d="m 68.03163,853.22913 c -2.609805,0 -4.725431,-2.11561 -4.725431,-4.72536 0,-2.60974 2.115626,-4.72536 4.725431,-4.72536 2.609699,0 4.725325,2.11562 4.725325,4.72536 0,2.60975 -2.115626,4.72536 -4.725325,4.72536 z"
       id="path3290-4-7-8-3"
       inkscape:connector-curvature="0" />
    <path
       style="fill:#000000;fill-rule:evenodd;stroke:none;stroke-width:1.06666672"
       d="m 326.92913,844.72422 v 7.55905 H 77.480436 v -7.55905 z"
       id="rect3288-0-9-6-5"
       inkscape:connector-curvature="0" />
    <path
       style="fill:#000000;fill-opacity:1;fill-rule:evenodd;stroke:none;stroke-width:1.11230087"
       d="m 336.37808,947.71735 c -2.6098,0 -4.72543,-2.11562 -4.72543,-4.72536 0,-2.60975 2.11563,-4.72537 4.72543,-4.72537 2.6097,0 4.72533,2.11562 4.72533,4.72537 0,2.60974 -2.11563,4.72536 -4.72533,4.72536 z"
       id="path3290-5-6-7"
       inkscape:connector-curvature="0" />
    <path
       style="fill:#000000;fill-opacity:1;fill-rule:evenodd;stroke:none;stroke-width:1.11230087"
       d="m 68.03163,947.71735 c -2.609805,0 -4.725431,-2.11562 -4.725431,-4.72536 0,-2.60975 2.115626,-4.72537 4.725431,-4.72537 2.609699,0 4.725325,2.11562 4.725325,4.72537 0,2.60974 -2.115626,4.72536 -4.725325,4.72536 z"
       id="path3290-4-0-3-6"
       inkscape:connector-curvature="0" />
    <path
       style="fill:#000000;fill-rule:evenodd;stroke:none;stroke-width:1.06666672"
       d="m 326.92907,939.21244 v 7.55905 H 77.480371 v -7.55905 z"
       id="rect3288-0-2-7-3"
       inkscape:connector-curvature="0" />
    <path
       style="fill:#000000;fill-opacity:1;fill-rule:evenodd;stroke:none;stroke-width:1.11230087"
       d="m 336.37797,1032.7548 c 2.60981,0 4.72543,2.1157 4.72543,4.7254 0,2.6098 -2.11562,4.7254 -4.72543,4.7254 -2.6097,0 -4.72532,-2.1156 -4.72532,-4.7254 0,-2.6097 2.11562,-4.7254 4.72532,-4.7254 z"
       id="path3290-7-4-1-2"
       inkscape:connector-curvature="0" />
    <path
       style="fill:#000000;fill-opacity:1;fill-rule:evenodd;stroke:none;stroke-width:1.11230087"
       d="m 68.031517,1032.7548 c 2.609805,0 4.725431,2.1157 4.725431,4.7254 0,2.6098 -2.115626,4.7254 -4.725431,4.7254 -2.609699,0 -4.725325,-2.1156 -4.725325,-4.7254 0,-2.6097 2.115626,-4.7254 4.725325,-4.7254 z"
       id="path3290-4-7-8-3-0"
       inkscape:connector-curvature="0" />
    <path
       style="fill:#000000;fill-rule:evenodd;stroke:none;stroke-width:1.06666672"
       d="m 77.480314,1041.2597 v -7.559 H 326.92901 v 7.559 z"
       id="rect3288-0-9-6-5-9"
       inkscape:connector-curvature="0" />
    <path
       style="fill:#000000;fill-opacity:1;fill-rule:nonzero;stroke-width:1.06666672"
       d="m 1485.5445,202.0149 c -7.8283,0 -14.1743,-6.346 -14.1743,-14.17419 0,-7.82818 6.346,-14.17417 14.1743,-14.17417 7.8281,0 14.174,6.34599 14.174,14.17417 0,7.82819 -6.3459,14.17419 -14.174,14.17419 z"
       id="path3523"
       inkscape:connector-curvature="0" />
    <path
       style="fill:#000000;fill-opacity:1;fill-rule:nonzero;stroke-width:1.06666672"
       d="m 1485.5431,295.37089 c -7.8283,0 -14.1742,-6.346 -14.1742,-14.17419 0,-7.82818 6.3459,-14.17417 14.1742,-14.17417 7.8281,0 14.174,6.34599 14.174,14.17417 0,7.82819 -6.3459,14.17419 -14.174,14.17419 z"
       id="path3523-4"
       inkscape:connector-curvature="0" />
    <path
       style="fill:#000000;fill-opacity:1;fill-rule:nonzero;stroke-width:1.06666672"
       d="m 1485.5434,1051.2775 c -7.8289,0 -14.1754,-6.3465 -14.1754,-14.1753 0,-7.8288 6.3465,-14.1753 14.1754,-14.1753 7.8288,0 14.1751,6.3465 14.1751,14.1753 0,7.8288 -6.3463,14.1753 -14.1751,14.1753 z"
       id="path3523-4-3"
       inkscape:connector-curvature="0" />
    <path
       style="fill:#000000;fill-opacity:1;fill-rule:nonzero;stroke-width:1.06666672"
       d="m 1485.5431,956.78822 c -7.8283,0 -14.1742,-6.346 -14.1742,-14.17418 0,-7.82818 6.3459,-14.17418 14.1742,-14.17418 7.8281,0 14.174,6.346 14.174,14.17418 0,7.82818 -6.3459,14.17418 -14.174,14.17418 z"
       id="path3523-4-38"
       inkscape:connector-curvature="0" />
    <path
       style="fill:#000000;fill-opacity:1;fill-rule:nonzero;stroke-width:1.06666672"
       d="m 1485.5431,862.30003 c -7.8283,0 -14.1742,-6.346 -14.1742,-14.17418 0,-7.82819 6.3459,-14.17418 14.1742,-14.17418 7.8281,0 14.174,6.34599 14.174,14.17418 0,7.82818 -6.3459,14.17418 -14.174,14.17418 z"
       id="path3523-4-9"
       inkscape:connector-curvature="0" />
    <path
       style="fill:#000000;fill-opacity:1;fill-rule:nonzero;stroke-width:1.06666672"
       d="m 1485.5431,767.81184 c -7.8283,0 -14.1742,-6.34601 -14.1742,-14.17419 0,-7.82818 6.3459,-14.17417 14.1742,-14.17417 7.8281,0 14.174,6.34599 14.174,14.17417 0,7.82818 -6.3459,14.17419 -14.174,14.17419 z"
       id="path3523-4-0"
       inkscape:connector-curvature="0" />
    <path
       style="fill:#000000;fill-opacity:1;fill-rule:nonzero;stroke-width:1.06666672"
       d="m 1485.5431,673.32366 c -7.8283,0 -14.1742,-6.34601 -14.1742,-14.17419 0,-7.82818 6.3459,-14.17417 14.1742,-14.17417 7.8281,0 14.174,6.34599 14.174,14.17417 0,7.82818 -6.3459,14.17419 -14.174,14.17419 z"
       id="path3523-4-86"
       inkscape:connector-curvature="0" />
    <path
       style="fill:#000000;fill-opacity:1;fill-rule:nonzero;stroke-width:1.06666672"
       d="m 1485.5431,578.83547 c -7.8283,0 -14.1742,-6.34601 -14.1742,-14.17419 0,-7.82818 6.3459,-14.17418 14.1742,-14.17418 7.8281,0 14.174,6.346 14.174,14.17418 0,7.82818 -6.3459,14.17419 -14.174,14.17419 z"
       id="path3523-4-6"
       inkscape:connector-curvature="0" />
    <path
       style="fill:#000000;fill-opacity:1;fill-rule:nonzero;stroke-width:1.06666672"
       d="m 1485.5431,484.34727 c -7.8283,0 -14.1742,-6.346 -14.1742,-14.17418 0,-7.82818 6.3459,-14.17418 14.1742,-14.17418 7.8281,0 14.174,6.346 14.174,14.17418 0,7.82818 -6.3459,14.17418 -14.174,14.17418 z"
       id="path3523-4-34"
       inkscape:connector-curvature="0" />
    <path
       style="fill:#000000;fill-opacity:1;fill-rule:nonzero;stroke-width:1.06666672"
       d="m 1485.5433,389.85963 c -7.8287,0 -14.1749,-6.34624 -14.1749,-14.17473 0,-7.82849 6.3462,-14.17473 14.1749,-14.17473 7.8283,0 14.1745,6.34624 14.1745,14.17473 0,7.82849 -6.3462,14.17473 -14.1745,14.17473 z"
       id="path3523-4-84"
       inkscape:connector-curvature="0" />
    <path
       style="fill:#000000;fill-opacity:1;fill-rule:nonzero;stroke-width:1.06666672"
       d="m 1068.0945,171.96836 v 30.23622 h -30.2362 v -30.23622 z"
       id="rect4013"
       inkscape:connector-curvature="0" />
    <path
       style="fill:#000000;fill-opacity:1;fill-rule:nonzero;stroke-width:1.06666672"
       d="m 1068.0945,266.45655 v 30.23623 h -30.2362 v -30.23623 z"
       id="rect4013-7"
       inkscape:connector-curvature="0" />
    <path
       style="fill:#000000;fill-opacity:1;fill-rule:nonzero;stroke-width:1.06666672"
       d="m 1068.0945,360.94473 v 30.23622 h -30.2362 v -30.23622 z"
       id="rect4013-7-4"
       inkscape:connector-curvature="0" />
    <path
       style="fill:#000000;fill-opacity:1;fill-rule:nonzero;stroke-width:1.06666672"
       d="m 1068.0945,455.43294 v 30.23622 h -30.2362 v -30.23622 z"
       id="rect4013-7-4-0"
       inkscape:connector-curvature="0" />
    <path
       style="fill:#000000;fill-opacity:1;fill-rule:nonzero;stroke-width:1.06666672"
       d="m 1068.0945,549.9211 v 30.23621 h -30.2362 V 549.9211 Z"
       id="rect4013-7-4-0-9"
       inkscape:connector-curvature="0" />
    <path
       style="fill:#000000;fill-opacity:1;fill-rule:nonzero;stroke-width:1.06666672"
       d="m 1068.0945,644.40931 v 30.23622 h -30.2362 v -30.23622 z"
       id="rect4013-7-4-0-9-4"
       inkscape:connector-curvature="0" />
    <path
       style="fill:#000000;fill-opacity:1;fill-rule:nonzero;stroke-width:1.06666672"
       d="m 1068.0945,738.89746 v 30.23623 h -30.2362 v -30.23623 z"
       id="rect4013-7-4-0-9-1"
       inkscape:connector-curvature="0" />
    <path
       style="fill:#000000;fill-opacity:1;fill-rule:nonzero;stroke-width:1.06666672"
       d="m 1068.0945,927.87382 v 30.23623 h -30.2362 v -30.23623 z"
       id="rect4013-7-4-0-9-7"
       inkscape:connector-curvature="0" />
    <path
       style="fill:#000000;fill-opacity:1;fill-rule:nonzero;stroke-width:1.06666672"
       d="m 1068.0945,833.38567 v 30.23623 h -30.2362 v -30.23623 z"
       id="rect4013-7-4-0-9-11"
       inkscape:connector-curvature="0" />
    <path
       style="fill:#000000;fill-opacity:1;fill-rule:nonzero;stroke-width:1.06666672"
       d="m 1068.0945,1022.362 v 30.2363 h -30.2362 v -30.2363 z"
       id="rect4013-7-4-0-9-2"
       inkscape:connector-curvature="0" />
    <path
       style="fill:#000000;fill-opacity:1;fill-rule:nonzero;stroke-width:1.06666672"
       d="m 1176.5669,171.96836 v 30.23622 h -30.2362 v -30.23622 z"
       id="rect4013-1"
       inkscape:connector-curvature="0" />
    <path
       style="fill:#000000;fill-opacity:1;fill-rule:nonzero;stroke-width:1.06666672"
       d="m 1176.5669,266.45658 v 30.23622 h -30.2362 v -30.23622 z"
       id="rect4013-7-42"
       inkscape:connector-curvature="0" />
    <path
       style="fill:#000000;fill-opacity:1;fill-rule:nonzero;stroke-width:1.06666672"
       d="m 1176.5669,360.94473 v 30.23622 h -30.2362 v -30.23622 z"
       id="rect4013-7-4-3"
       inkscape:connector-curvature="0" />
    <path
       style="fill:#000000;fill-opacity:1;fill-rule:nonzero;stroke-width:1.06666672"
       d="m 1176.5669,455.43294 v 30.23622 h -30.2362 v -30.23622 z"
       id="rect4013-7-4-0-2"
       inkscape:connector-curvature="0" />
    <path
       style="fill:#000000;fill-opacity:1;fill-rule:nonzero;stroke-width:1.06666672"
       d="m 1176.5669,549.9211 v 30.23621 h -30.2362 V 549.9211 Z"
       id="rect4013-7-4-0-9-21"
       inkscape:connector-curvature="0" />
    <path
       style="fill:#000000;fill-opacity:1;fill-rule:nonzero;stroke-width:1.06666672"
       d="m 1176.5669,644.40931 v 30.23622 h -30.2362 v -30.23622 z"
       id="rect4013-7-4-0-9-4-6"
       inkscape:connector-curvature="0" />
    <path
       style="fill:#000000;fill-opacity:1;fill-rule:nonzero;stroke-width:1.06666672"
       d="m 1176.5669,738.89753 v 30.23622 h -30.2362 v -30.23622 z"
       id="rect4013-7-4-0-9-1-8"
       inkscape:connector-curvature="0" />
    <path
       style="fill:#000000;fill-opacity:1;fill-rule:nonzero;stroke-width:1.06666672"
       d="m 1176.5669,927.87382 v 30.23623 h -30.2362 v -30.23623 z"
       id="rect4013-7-4-0-9-7-5"
       inkscape:connector-curvature="0" />
    <path
       style="fill:#000000;fill-opacity:1;fill-rule:nonzero;stroke-width:1.06666672"
       d="m 1176.5669,833.38567 v 30.23623 h -30.2362 v -30.23623 z"
       id="rect4013-7-4-0-9-11-7"
       inkscape:connector-curvature="0" />
    <path
       style="fill:#000000;fill-opacity:1;fill-rule:nonzero;stroke-width:1.06666672"
       d="m 1176.5669,1022.3621 v 30.2362 h -30.2362 v -30.2362 z"
       id="rect4013-7-4-0-9-2-6"
       inkscape:connector-curvature="0" />
    <path
       style="fill:#000000;fill-opacity:1;fill-rule:nonzero;stroke-width:1.06666672"
       d="m 1285.0394,171.96836 v 30.23622 h -30.2363 v -30.23622 z"
       id="rect4013-1-1"
       inkscape:connector-curvature="0" />
    <path
       style="fill:#000000;fill-opacity:1;fill-rule:nonzero;stroke-width:1.06666672"
       d="m 1285.0394,266.45658 v 30.23622 h -30.2363 v -30.23622 z"
       id="rect4013-7-42-8"
       inkscape:connector-curvature="0" />
    <path
       style="fill:#000000;fill-opacity:1;fill-rule:nonzero;stroke-width:1.06666672"
       d="m 1285.0394,360.94473 v 30.23622 h -30.2363 v -30.23622 z"
       id="rect4013-7-4-3-9"
       inkscape:connector-curvature="0" />
    <path
       style="fill:#000000;fill-opacity:1;fill-rule:nonzero;stroke-width:1.06666672"
       d="m 1285.0394,455.43297 v 30.23622 h -30.2363 v -30.23622 z"
       id="rect4013-7-4-0-2-2"
       inkscape:connector-curvature="0" />
    <path
       style="fill:#000000;fill-opacity:1;fill-rule:nonzero;stroke-width:1.06666672"
       d="m 1285.0394,549.92116 v 30.23622 h -30.2363 v -30.23622 z"
       id="rect4013-7-4-0-9-21-7"
       inkscape:connector-curvature="0" />
    <path
       style="fill:#000000;fill-opacity:1;fill-rule:nonzero;stroke-width:1.06666672"
       d="m 1285.0394,644.40931 v 30.23622 h -30.2363 v -30.23622 z"
       id="rect4013-7-4-0-9-4-6-9"
       inkscape:connector-curvature="0" />
    <path
       style="fill:#000000;fill-opacity:1;fill-rule:nonzero;stroke-width:1.06666672"
       d="m 1285.0394,738.89753 v 30.23622 h -30.2363 v -30.23622 z"
       id="rect4013-7-4-0-9-1-8-5"
       inkscape:connector-curvature="0" />
    <path
       style="fill:#000000;fill-opacity:1;fill-rule:nonzero;stroke-width:1.06666672"
       d="m 1285.0394,927.87382 v 30.23623 h -30.2363 v -30.23623 z"
       id="rect4013-7-4-0-9-7-5-4"
       inkscape:connector-curvature="0" />
    <path
       style="fill:#000000;fill-opacity:1;fill-rule:nonzero;stroke-width:1.06666672"
       d="m 1285.0394,833.38567 v 30.23623 h -30.2363 v -30.23623 z"
       id="rect4013-7-4-0-9-11-7-3"
       inkscape:connector-curvature="0" />
    <path
       style="fill:#000000;fill-opacity:1;fill-rule:nonzero;stroke-width:1.06666672"
       d="m 1285.0394,1022.3621 v 30.2362 h -30.2363 v -30.2362 z"
       id="rect4013-7-4-0-9-2-6-1"
       inkscape:connector-curvature="0" />
    <path
       style="fill:#000000;fill-opacity:1;fill-rule:nonzero;stroke-width:1.06666672"
       d="m 1393.5119,171.96836 v 30.23622 h -30.2363 v -30.23622 z"
       id="rect4013-1-2"
       inkscape:connector-curvature="0" />
    <path
       style="fill:#000000;fill-opacity:1;fill-rule:nonzero;stroke-width:1.06666672"
       d="m 1393.5119,266.45658 v 30.23622 h -30.2363 v -30.23622 z"
       id="rect4013-7-42-3"
       inkscape:connector-curvature="0" />
    <path
       style="fill:#000000;fill-opacity:1;fill-rule:nonzero;stroke-width:1.06666672"
       d="m 1393.5119,360.94473 v 30.23622 h -30.2363 v -30.23622 z"
       id="rect4013-7-4-3-3"
       inkscape:connector-curvature="0" />
    <path
       style="fill:#000000;fill-opacity:1;fill-rule:nonzero;stroke-width:1.06666672"
       d="m 1393.5119,455.43297 v 30.23622 h -30.2363 v -30.23622 z"
       id="rect4013-7-4-0-2-4"
       inkscape:connector-curvature="0" />
    <path
       style="fill:#000000;fill-opacity:1;fill-rule:nonzero;stroke-width:1.06666672"
       d="m 1393.5119,549.92116 v 30.23622 h -30.2363 v -30.23622 z"
       id="rect4013-7-4-0-9-21-1"
       inkscape:connector-curvature="0" />
    <path
       style="fill:#000000;fill-opacity:1;fill-rule:nonzero;stroke-width:1.06666672"
       d="m 1393.5119,644.40931 v 30.23622 h -30.2363 v -30.23622 z"
       id="rect4013-7-4-0-9-4-6-1"
       inkscape:connector-curvature="0" />
    <path
       style="fill:#000000;fill-opacity:1;fill-rule:nonzero;stroke-width:1.06666672"
       d="m 1393.5119,738.89753 v 30.23622 h -30.2363 v -30.23622 z"
       id="rect4013-7-4-0-9-1-8-3"
       inkscape:connector-curvature="0" />
    <path
       style="fill:#000000;fill-opacity:1;fill-rule:nonzero;stroke-width:1.06666672"
       d="m 1393.5119,927.87382 v 30.23623 h -30.2363 v -30.23623 z"
       id="rect4013-7-4-0-9-7-5-8"
       inkscape:connector-curvature="0" />
    <path
       style="fill:#000000;fill-opacity:1;fill-rule:nonzero;stroke-width:1.06666672"
       d="m 1393.5119,833.38567 v 30.23623 h -30.2363 v -30.23623 z"
       id="rect4013-7-4-0-9-11-7-7"
       inkscape:connector-curvature="0" />
    <path
       style="fill:#000000;fill-opacity:1;fill-rule:nonzero;stroke-width:1.06666672"
       d="m 1393.5119,1022.3621 v 30.2362 h -30.2363 v -30.2362 z"
       id="rect4013-7-4-0-9-2-6-4"
       inkscape:connector-curvature="0" />
    <path
       style="fill:#000000;stroke:none;stroke-width:1.06666672"
       d="m 873.0709,154.96048 v 64.25197 h -64.25197 v -64.25197 z"
       id="rect3844-9-88-2"
       inkscape:connector-curvature="0" />
    <path
       style="fill:#000000;stroke:none;stroke-width:1.06666672"
       d="M 873.0709,249.44863 V 313.7006 H 808.81893 V 249.44863 Z"
       id="rect3844-0-2-0-7"
       inkscape:connector-curvature="0" />
    <path
       style="fill:#000000;stroke:none;stroke-width:1.06666672"
       d="m 873.0709,343.93692 v 64.25197 h -64.25197 v -64.25197 z"
       id="rect3844-9-7-0-7"
       inkscape:connector-curvature="0" />
    <path
       style="fill:#000000;stroke:none;stroke-width:1.06666672"
       d="M 873.0709,438.42513 V 502.6771 H 808.81893 V 438.42513 Z"
       id="rect3844-0-2-9-7-9"
       inkscape:connector-curvature="0" />
    <path
       style="fill:#000000;stroke:none;stroke-width:1.06666672"
       d="m 873.0709,532.91328 v 64.25197 h -64.25197 v -64.25197 z"
       id="rect3844-9-5-5-3"
       inkscape:connector-curvature="0" />
    <path
       style="fill:#000000;stroke:none;stroke-width:1.06666672"
       d="m 873.0709,627.40156 v 64.25198 h -64.25197 v -64.25198 z"
       id="rect3844-0-2-98-2-1"
       inkscape:connector-curvature="0" />
    <path
       style="fill:#000000;stroke:none;stroke-width:1.06666672"
       d="m 873.0709,721.88951 v 64.25197 h -64.25197 v -64.25197 z"
       id="rect3844-9-7-7-98-9"
       inkscape:connector-curvature="0" />
    <path
       style="fill:#000000;stroke:none;stroke-width:1.06666672"
       d="m 873.0709,816.37766 v 64.25198 h -64.25197 v -64.25198 z"
       id="rect3844-0-2-9-2-2-8"
       inkscape:connector-curvature="0" />
    <path
       style="fill:#000000;stroke:none;stroke-width:1.06666672"
       d="m 873.0709,910.86582 v 64.25197 h -64.25197 v -64.25197 z"
       id="rect3844-9-7-7-9-8-6"
       inkscape:connector-curvature="0" />
    <path
       style="fill:#000000;stroke:none;stroke-width:1.06666672"
       d="m 873.0709,1005.3541 v 64.252 h -64.25197 v -64.252 z"
       id="rect3844-0-2-9-2-4-2-5"
       inkscape:connector-curvature="0" />
    <path
       style="fill:#000000;stroke:none;stroke-width:1.06666672"
       d="m 778.58268,154.96048 v 64.25197 h -64.25197 v -64.25197 z"
       id="rect3844-9-88-2-0"
       inkscape:connector-curvature="0" />
    <path
       style="fill:#000000;stroke:none;stroke-width:1.06666672"
       d="M 778.58268,249.44863 V 313.7006 H 714.33071 V 249.44863 Z"
       id="rect3844-0-2-0-7-2"
       inkscape:connector-curvature="0" />
    <path
       style="fill:#000000;stroke:none;stroke-width:1.06666672"
       d="m 778.58268,343.93692 v 64.25197 h -64.25197 v -64.25197 z"
       id="rect3844-9-7-0-7-8"
       inkscape:connector-curvature="0" />
    <path
       style="fill:#000000;stroke:none;stroke-width:1.06666672"
       d="m 778.58268,438.42516 v 64.25197 h -64.25197 v -64.25197 z"
       id="rect3844-0-2-9-7-9-6"
       inkscape:connector-curvature="0" />
    <path
       style="fill:#000000;stroke:none;stroke-width:1.06666672"
       d="m 778.58268,532.91331 v 64.25197 h -64.25197 v -64.25197 z"
       id="rect3844-9-5-5-3-0"
       inkscape:connector-curvature="0" />
    <path
       style="fill:#000000;stroke:none;stroke-width:1.06666672"
       d="m 778.58268,627.40156 v 64.25198 h -64.25197 v -64.25198 z"
       id="rect3844-0-2-98-2-1-2"
       inkscape:connector-curvature="0" />
    <path
       style="fill:#000000;stroke:none;stroke-width:1.06666672"
       d="m 778.58268,721.88951 v 64.25197 h -64.25197 v -64.25197 z"
       id="rect3844-9-7-7-98-9-4"
       inkscape:connector-curvature="0" />
    <path
       style="fill:#000000;stroke:none;stroke-width:1.06666672"
       d="m 778.58268,816.37766 v 64.25198 h -64.25197 v -64.25198 z"
       id="rect3844-0-2-9-2-2-8-8"
       inkscape:connector-curvature="0" />
    <path
       style="fill:#000000;stroke:none;stroke-width:1.06666672"
       d="m 778.58268,910.86582 v 64.25197 h -64.25197 v -64.25197 z"
       id="rect3844-9-7-7-9-8-6-6"
       inkscape:connector-curvature="0" />
    <path
       style="fill:#000000;stroke:none;stroke-width:1.06666672"
       d="m 778.58268,1005.3541 v 64.252 h -64.25197 v -64.252 z"
       id="rect3844-0-2-9-2-4-2-5-5"
       inkscape:connector-curvature="0" />
    <path
       style="fill:#000000;stroke:none;stroke-width:1.06666672"
       d="m 684.09453,154.96048 v 64.25197 h -64.25197 v -64.25197 z"
       id="rect3844-9-88-2-0-0"
       inkscape:connector-curvature="0" />
    <path
       style="fill:#000000;stroke:none;stroke-width:1.06666672"
       d="M 684.09453,249.44863 V 313.7006 H 619.84256 V 249.44863 Z"
       id="rect3844-0-2-0-7-2-9"
       inkscape:connector-curvature="0" />
    <path
       style="fill:#000000;stroke:none;stroke-width:1.06666672"
       d="m 684.09453,343.93692 v 64.25197 h -64.25197 v -64.25197 z"
       id="rect3844-9-7-0-7-8-0"
       inkscape:connector-curvature="0" />
    <path
       style="fill:#000000;stroke:none;stroke-width:1.06666672"
       d="m 684.09453,438.42519 v 64.25197 h -64.25197 v -64.25197 z"
       id="rect3844-0-2-9-7-9-6-0"
       inkscape:connector-curvature="0" />
    <path
       style="fill:#000000;stroke:none;stroke-width:1.06666672"
       d="m 684.09453,532.91334 v 64.25197 h -64.25197 v -64.25197 z"
       id="rect3844-9-5-5-3-0-6"
       inkscape:connector-curvature="0" />
    <path
       style="fill:#000000;stroke:none;stroke-width:1.06666672"
       d="M 684.09453,627.40163 V 691.6536 H 619.84256 V 627.40163 Z"
       id="rect3844-0-2-98-2-1-2-1"
       inkscape:connector-curvature="0" />
    <path
       style="fill:#000000;stroke:none;stroke-width:1.06666672"
       d="m 684.09453,721.88951 v 64.25197 h -64.25197 v -64.25197 z"
       id="rect3844-9-7-7-98-9-4-3"
       inkscape:connector-curvature="0" />
    <path
       style="fill:#000000;stroke:none;stroke-width:1.06666672"
       d="m 684.09453,816.37766 v 64.25198 h -64.25197 v -64.25198 z"
       id="rect3844-0-2-9-2-2-8-8-8"
       inkscape:connector-curvature="0" />
    <path
       style="fill:#000000;stroke:none;stroke-width:1.06666672"
       d="m 684.09453,910.86582 v 64.25197 h -64.25197 v -64.25197 z"
       id="rect3844-9-7-7-9-8-6-6-9"
       inkscape:connector-curvature="0" />
    <path
       style="fill:#000000;stroke:none;stroke-width:1.06666672"
       d="m 684.09453,1005.3541 v 64.252 h -64.25197 v -64.252 z"
       id="rect3844-0-2-9-2-4-2-5-5-3"
       inkscape:connector-curvature="0" />
    <path
       style="fill:#000000;stroke:none;stroke-width:1.06666672"
       d="m 589.60631,154.96048 v 64.25197 h -64.25196 v -64.25197 z"
       id="rect3844-9-88-2-0-0-4"
       inkscape:connector-curvature="0" />
    <path
       style="fill:#000000;stroke:none;stroke-width:1.06666672"
       d="m 589.60631,249.4486 v 64.25197 H 525.35435 V 249.4486 Z"
       id="rect3844-0-2-0-7-2-9-4"
       inkscape:connector-curvature="0" />
    <path
       style="fill:#000000;stroke:none;stroke-width:1.06666672"
       d="m 589.60631,343.93689 v 64.25196 h -64.25196 v -64.25196 z"
       id="rect3844-9-7-0-7-8-0-6"
       inkscape:connector-curvature="0" />
    <path
       style="fill:#000000;stroke:none;stroke-width:1.06666672"
       d="m 589.60631,438.42519 v 64.25197 h -64.25196 v -64.25197 z"
       id="rect3844-0-2-9-7-9-6-0-0"
       inkscape:connector-curvature="0" />
    <path
       style="fill:#000000;stroke:none;stroke-width:1.06666672"
       d="m 589.60631,532.91334 v 64.25197 h -64.25196 v -64.25197 z"
       id="rect3844-9-5-5-3-0-6-6"
       inkscape:connector-curvature="0" />
    <path
       style="fill:#000000;stroke:none;stroke-width:1.06666672"
       d="M 589.60631,627.40163 V 691.6536 H 525.35435 V 627.40163 Z"
       id="rect3844-0-2-98-2-1-2-1-6"
       inkscape:connector-curvature="0" />
    <path
       style="fill:#000000;stroke:none;stroke-width:1.06666672"
       d="m 589.60631,721.88945 v 64.25197 h -64.25196 v -64.25197 z"
       id="rect3844-9-7-7-98-9-4-3-1"
       inkscape:connector-curvature="0" />
    <path
       style="fill:#000000;stroke:none;stroke-width:1.06666672"
       d="m 589.60631,816.3776 v 64.25198 H 525.35435 V 816.3776 Z"
       id="rect3844-0-2-9-2-2-8-8-8-8"
       inkscape:connector-curvature="0" />
    <path
       style="fill:#000000;stroke:none;stroke-width:1.06666672"
       d="m 589.60631,910.86582 v 64.25197 h -64.25196 v -64.25197 z"
       id="rect3844-9-7-7-9-8-6-6-9-4"
       inkscape:connector-curvature="0" />
    <path
       style="fill:#000000;stroke:none;stroke-width:1.06666672"
       d="m 589.60631,1005.3541 v 64.252 h -64.25196 v -64.252 z"
       id="rect3844-0-2-9-2-4-2-5-5-3-9"
       inkscape:connector-curvature="0" />
    <path
       style="fill:#000000;stroke:none;stroke-width:1.06666672"
       d="m 495.11813,154.96048 v 64.25197 h -64.25196 v -64.25197 z"
       id="rect3844-9-88-2-0-0-4-6"
       inkscape:connector-curvature="0" />
    <path
       style="fill:#000000;stroke:none;stroke-width:1.06666672"
       d="m 495.11813,249.4486 v 64.25197 H 430.86617 V 249.4486 Z"
       id="rect3844-0-2-0-7-2-9-4-3"
       inkscape:connector-curvature="0" />
    <path
       style="fill:#000000;stroke:none;stroke-width:1.06666672"
       d="m 495.11813,343.93689 v 64.25196 h -64.25196 v -64.25196 z"
       id="rect3844-9-7-0-7-8-0-6-7"
       inkscape:connector-curvature="0" />
    <path
       style="fill:#000000;stroke:none;stroke-width:1.06666672"
       d="m 495.11813,438.42519 v 64.25197 h -64.25196 v -64.25197 z"
       id="rect3844-0-2-9-7-9-6-0-0-8"
       inkscape:connector-curvature="0" />
    <path
       style="fill:#000000;stroke:none;stroke-width:1.06666672"
       d="m 495.11813,532.91334 v 64.25197 h -64.25196 v -64.25197 z"
       id="rect3844-9-5-5-3-0-6-6-8"
       inkscape:connector-curvature="0" />
    <path
       style="fill:#000000;stroke:none;stroke-width:1.06666672"
       d="M 495.11813,627.40163 V 691.6536 H 430.86617 V 627.40163 Z"
       id="rect3844-0-2-98-2-1-2-1-6-2"
       inkscape:connector-curvature="0" />
    <path
       style="fill:#000000;stroke:none;stroke-width:1.06666672"
       d="m 495.11813,721.88945 v 64.25197 h -64.25196 v -64.25197 z"
       id="rect3844-9-7-7-98-9-4-3-1-9"
       inkscape:connector-curvature="0" />
    <path
       style="fill:#000000;stroke:none;stroke-width:1.06666672"
       d="m 495.11813,816.3776 v 64.25198 H 430.86617 V 816.3776 Z"
       id="rect3844-0-2-9-2-2-8-8-8-8-1"
       inkscape:connector-curvature="0" />
    <path
       style="fill:#000000;stroke:none;stroke-width:1.06666672"
       d="m 495.11813,910.86582 v 64.25197 h -64.25196 v -64.25197 z"
       id="rect3844-9-7-7-9-8-6-6-9-4-3"
       inkscape:connector-curvature="0" />
    <path
       style="fill:#000000;stroke:none;stroke-width:1.06666672"
       d="m 495.11813,1005.3541 v 64.252 h -64.25196 v -64.252 z"
       id="rect3844-0-2-9-2-4-2-5-5-3-9-5"
       inkscape:connector-curvature="0" />
    <circle
       style="fill:#000000;fill-opacity:1;fill-rule:nonzero;stroke-width:0.73490816"
       id="path3986"
       cx="44.409447"
       cy="1078.11"
       r="6.6141734" />
    <circle
       style="fill:#000000;fill-opacity:1;fill-rule:nonzero;stroke-width:0.73490816"
       id="path3986-5"
       cx="1505.1968"
       cy="1078.11"
       r="6.6141734" />
    <circle
       style="fill:#000000;fill-opacity:1;fill-rule:nonzero;stroke-width:0.73490816"
       id="path3986-1"
       cx="44.409451"
       cy="146.45645"
       r="6.6141734" />
    <circle
       style="fill:#000000;fill-opacity:1;fill-rule:nonzero;stroke-width:0.73490816"
       id="path3986-5-8"
       cx="1505.1968"
       cy="146.45645"
       r="6.6141734" />
    <circle
       style="fill:#000000;fill-opacity:1;fill-rule:nonzero;stroke-width:0.73490816"
       id="path3986-5-8-9"
       cx="1008.189"
       cy="146.45645"
       r="6.6141734" />
    <circle
       style="fill:#000000;fill-opacity:1;fill-rule:nonzero;stroke-width:0.73490816"
       id="path3986-5-8-9-5"
       cx="1008.189"
       cy="1078.11"
       r="6.6141734" />
  </g>
</svg>
