<?xml version="1.0" encoding="UTF-8" standalone="no"?>
<!-- Created with Inkscape (http://www.inkscape.org/) -->

<svg
   xmlns:dc="http://purl.org/dc/elements/1.1/"
   xmlns:cc="http://creativecommons.org/ns#"
   xmlns:rdf="http://www.w3.org/1999/02/22-rdf-syntax-ns#"
   xmlns:svg="http://www.w3.org/2000/svg"
   xmlns="http://www.w3.org/2000/svg"
   xmlns:sodipodi="http://sodipodi.sourceforge.net/DTD/sodipodi-0.dtd"
   xmlns:inkscape="http://www.inkscape.org/namespaces/inkscape"
   width="150mm"
   height="250mm"
   viewBox="0 0 531.49606 885.82677"
   id="svg3635"
   version="1.1"
   inkscape:version="0.91 r13725"
   sodipodi:docname="matrix_panel_only_holes.svg">
  <defs
     id="defs3637" />
  <sodipodi:namedview
     id="base"
     pagecolor="#ffffff"
     bordercolor="#666666"
     borderopacity="1.0"
     inkscape:pageopacity="0.0"
     inkscape:pageshadow="2"
     inkscape:zoom="0.95729778"
     inkscape:cx="457.09112"
     inkscape:cy="440.60506"
     inkscape:document-units="mm"
     inkscape:current-layer="layer1"
     showgrid="false"
     inkscape:window-width="1920"
     inkscape:window-height="1017"
     inkscape:window-x="-8"
     inkscape:window-y="-8"
     inkscape:window-maximized="1"
     showguides="false" />
  <metadata
     id="metadata3640">
    <rdf:RDF>
      <cc:Work
         rdf:about="">
        <dc:format>image/svg+xml</dc:format>
        <dc:type
           rdf:resource="http://purl.org/dc/dcmitype/StillImage" />
        <dc:title></dc:title>
      </cc:Work>
    </rdf:RDF>
  </metadata>
  <g
     inkscape:label="Ebene 1"
     inkscape:groupmode="layer"
     id="layer1"
     transform="translate(0,-166.53543)">
    <circle
       style="fill:#000000"
       id="path4427-07-1-6-2-2-9"
       cx="363.18896"
       cy="334.84238"
       r="2.2145669" />
    <circle
       style="fill:#000000"
       id="path4427-0-3-0-2-3-5-8"
       cx="522.63782"
       cy="334.84238"
       r="2.2145669" />
    <circle
       style="fill:#000000"
       id="path4427-4-3-2-6-3-8-5"
       cx="363.18896"
       cy="175.39359"
       r="2.2145669" />
    <circle
       style="fill:#000000"
       id="path4427-4-7-6-0-8-3-1-6"
       cx="522.63782"
       cy="175.39359"
       r="2.2145669" />
    <circle
       style="fill:#000000"
       id="path4427-07-6-6-9-7"
       cx="186.02362"
       cy="334.84238"
       r="2.2145669" />
    <circle
       style="fill:#000000"
       id="path4427-0-3-9-5-2-7"
       cx="345.47244"
       cy="334.84238"
       r="2.2145669" />
    <circle
       style="fill:#000000"
       id="path4427-4-3-1-9-6-5"
       cx="186.02362"
       cy="175.39359"
       r="2.2145669" />
    <circle
       style="fill:#000000"
       id="path4427-4-7-6-5-8-2-0"
       cx="345.47244"
       cy="175.39359"
       r="2.2145669" />
    <circle
       style="fill:#000000"
       id="path4427-5-1-8-0"
       cx="8.8582678"
       cy="334.84244"
       r="2.2145669" />
    <circle
       style="fill:#000000"
       id="path4427-0-0-2-0-9"
       cx="168.30708"
       cy="334.84244"
       r="2.2145669" />
    <circle
       style="fill:#000000"
       id="path4427-4-5-3-4-6"
       cx="8.8582678"
       cy="175.39365"
       r="2.2145669" />
    <circle
       style="fill:#000000"
       id="path4427-4-7-9-1-3-0"
       cx="168.30708"
       cy="175.39365"
       r="2.2145669" />
    <circle
       style="fill:#000000"
       id="path4427-07-1-6-2-2"
       cx="363.18896"
       cy="512.00775"
       r="2.2145669" />
    <circle
       style="fill:#000000"
       id="path4427-0-3-0-2-3-5"
       cx="522.63782"
       cy="512.00775"
       r="2.2145669" />
    <circle
       style="fill:#000000"
       id="path4427-4-3-2-6-3-8"
       cx="363.18896"
       cy="352.55893"
       r="2.2145669" />
    <circle
       style="fill:#000000"
       id="path4427-4-7-6-0-8-3-1"
       cx="522.63782"
       cy="352.55893"
       r="2.2145669" />
    <circle
       style="fill:#000000"
       id="path4427-07-6-6-9"
       cx="186.02362"
       cy="512.00775"
       r="2.2145669" />
    <circle
       style="fill:#000000"
       id="path4427-0-3-9-5-2"
       cx="345.47244"
       cy="512.00775"
       r="2.2145669" />
    <circle
       style="fill:#000000"
       id="path4427-4-3-1-9-6"
       cx="186.02362"
       cy="352.55893"
       r="2.2145669" />
    <circle
       style="fill:#000000"
       id="path4427-4-7-6-5-8-2"
       cx="345.47244"
       cy="352.55893"
       r="2.2145669" />
    <circle
       style="fill:#000000"
       id="path4427-5-1-8"
       cx="8.8582678"
       cy="512.00781"
       r="2.2145669" />
    <circle
       style="fill:#000000"
       id="path4427-0-0-2-0"
       cx="168.30708"
       cy="512.00781"
       r="2.2145669" />
    <circle
       style="fill:#000000"
       id="path4427-4-5-3-4"
       cx="8.8582678"
       cy="352.55899"
       r="2.2145669" />
    <circle
       style="fill:#000000"
       id="path4427-4-7-9-1-3"
       cx="168.30708"
       cy="352.55899"
       r="2.2145669" />
    <circle
       style="fill:#000000"
       id="path4427-07-1-6-2"
       cx="363.18896"
       cy="689.1731"
       r="2.2145669" />
    <circle
       style="fill:#000000"
       id="path4427-0-3-0-2-3"
       cx="522.63782"
       cy="689.1731"
       r="2.2145669" />
    <circle
       style="fill:#000000"
       id="path4427-4-3-2-6-3"
       cx="363.18896"
       cy="529.7243"
       r="2.2145669" />
    <circle
       style="fill:#000000"
       id="path4427-4-7-6-0-8-3"
       cx="522.63782"
       cy="529.7243"
       r="2.2145669" />
    <circle
       style="fill:#000000"
       id="path4427-07-6-6"
       cx="186.02362"
       cy="689.1731"
       r="2.2145669" />
    <circle
       style="fill:#000000"
       id="path4427-0-3-9-5"
       cx="345.47244"
       cy="689.1731"
       r="2.2145669" />
    <circle
       style="fill:#000000"
       id="path4427-4-3-1-9"
       cx="186.02362"
       cy="529.7243"
       r="2.2145669" />
    <circle
       style="fill:#000000"
       id="path4427-4-7-6-5-8"
       cx="345.47244"
       cy="529.7243"
       r="2.2145669" />
    <circle
       style="fill:#000000"
       id="path4427-5-1"
       cx="8.8582678"
       cy="689.17316"
       r="2.2145669" />
    <circle
       style="fill:#000000"
       id="path4427-0-0-2"
       cx="168.30708"
       cy="689.17316"
       r="2.2145669" />
    <circle
       style="fill:#000000"
       id="path4427-4-5-3"
       cx="8.8582678"
       cy="529.72437"
       r="2.2145669" />
    <circle
       style="fill:#000000"
       id="path4427-4-7-9-1"
       cx="168.30708"
       cy="529.72437"
       r="2.2145669" />
    <circle
       style="fill:#000000"
       id="path4427-07-1-6"
       cx="363.18896"
       cy="866.33844"
       r="2.2145669" />
    <circle
       style="fill:#000000"
       id="path4427-0-3-0-2"
       cx="522.63782"
       cy="866.33844"
       r="2.2145669" />
    <circle
       style="fill:#000000"
       id="path4427-4-3-2-6"
       cx="363.18896"
       cy="706.88965"
       r="2.2145669" />
    <circle
       style="fill:#000000"
       id="path4427-4-7-6-0-8"
       cx="522.63782"
       cy="706.88965"
       r="2.2145669" />
    <circle
       style="fill:#000000"
       id="path4427-07-6"
       cx="186.02362"
       cy="866.33844"
       r="2.2145669" />
    <circle
       style="fill:#000000"
       id="path4427-0-3-9"
       cx="345.47244"
       cy="866.33844"
       r="2.2145669" />
    <circle
       style="fill:#000000"
       id="path4427-4-3-1"
       cx="186.02362"
       cy="706.88965"
       r="2.2145669" />
    <circle
       style="fill:#000000"
       id="path4427-4-7-6-5"
       cx="345.47244"
       cy="706.88965"
       r="2.2145669" />
    <circle
       style="fill:#000000"
       id="path4427-5"
       cx="8.8582678"
       cy="866.3385"
       r="2.2145669" />
    <circle
       style="fill:#000000"
       id="path4427-0-0"
       cx="168.30708"
       cy="866.3385"
       r="2.2145669" />
    <circle
       style="fill:#000000"
       id="path4427-4-5"
       cx="8.8582678"
       cy="706.88971"
       r="2.2145669" />
    <circle
       style="fill:#000000"
       id="path4427-4-7-9"
       cx="168.30708"
       cy="706.88971"
       r="2.2145669" />
    <circle
       style="fill:#000000"
       id="path4427-07-1"
       cx="363.18896"
       cy="1043.5039"
       r="2.2145669" />
    <circle
       style="fill:#000000"
       id="path4427-0-3-0"
       cx="522.63782"
       cy="1043.5039"
       r="2.2145669" />
    <circle
       style="fill:#000000"
       id="path4427-4-3-2"
       cx="363.18896"
       cy="884.05505"
       r="2.2145669" />
    <circle
       style="fill:#000000"
       id="path4427-4-7-6-0"
       cx="522.63782"
       cy="884.05505"
       r="2.2145669" />
    <circle
       style="fill:#000000"
       id="path4427-07"
       cx="186.02362"
       cy="1043.5039"
       r="2.2145669" />
    <circle
       style="fill:#000000"
       id="path4427-0-3"
       cx="345.47244"
       cy="1043.5039"
       r="2.2145669" />
    <circle
       style="fill:#000000"
       id="path4427-4-3"
       cx="186.02362"
       cy="884.05505"
       r="2.2145669" />
    <circle
       style="fill:#000000"
       id="path4427-4-7-6"
       cx="345.47244"
       cy="884.05505"
       r="2.2145669" />
    <circle
       style="fill:#000000"
       id="path4427"
       cx="8.8582678"
       cy="1043.5039"
       r="2.2145669" />
    <circle
       style="fill:#000000"
       id="path4427-0"
       cx="168.30708"
       cy="1043.5039"
       r="2.2145669" />
    <circle
       style="fill:#000000"
       id="path4427-4"
       cx="8.8582678"
       cy="884.05511"
       r="2.2145669" />
    <circle
       style="fill:#000000"
       id="path4427-4-7"
       cx="168.30708"
       cy="884.05511"
       r="2.2145669" />
    <g
       inkscape:label="Ebene 1"
       id="layer1-0"
       transform="translate(-383.5208,35.489538)" />
    <g
       id="layer2"
       inkscape:label="back"
       transform="translate(-383.5208,35.489538)" />
    <path
       id="rect3844-9-88"
       d="m 519.09449,178.937 0,63.77953 -63.77953,0 0,-63.77953 z"
       style="fill:#000000;stroke:none"
       inkscape:connector-curvature="0" />
    <path
       id="rect3844-0-2-0"
       d="m 519.09449,267.51968 0,63.77953 -63.77953,0 0,-63.77953 z"
       style="fill:#000000;stroke:none"
       inkscape:connector-curvature="0" />
    <path
       id="rect3844-9-7-0"
       d="m 519.09455,356.1023 0,63.77953 -63.77953,0 0,-63.77953 z"
       style="fill:#000000;stroke:none"
       inkscape:connector-curvature="0" />
    <path
       id="rect3844-0-2-9-7"
       d="m 519.09449,444.68491 0,63.77953 -63.77953,0 0,-63.77953 z"
       style="fill:#000000;stroke:none"
       inkscape:connector-curvature="0" />
    <path
       id="rect3844-9-5-5"
       d="m 519.09455,533.26762 0,63.77953 -63.77953,0 0,-63.77953 z"
       style="fill:#000000;stroke:none"
       inkscape:connector-curvature="0" />
    <path
       id="rect3844-0-2-98-2"
       d="m 519.09455,621.8502 0,63.77953 -63.77953,0 0,-63.77953 z"
       style="fill:#000000;stroke:none"
       inkscape:connector-curvature="0" />
    <path
       id="rect3844-9-7-7-98"
       d="m 519.09454,710.43307 0,63.77953 -63.77952,0 0,-63.77953 z"
       style="fill:#000000;stroke:none"
       inkscape:connector-curvature="0" />
    <path
       id="rect3844-0-2-9-2-2"
       d="m 519.09449,799.01574 0,63.77953 -63.77953,0 0,-63.77953 z"
       style="fill:#000000;stroke:none"
       inkscape:connector-curvature="0" />
    <path
       id="rect3844-9-7-7-9-8"
       d="m 519.09455,887.59825 0,63.77953 -63.77953,0 0,-63.77953 z"
       style="fill:#000000;stroke:none"
       inkscape:connector-curvature="0" />
    <path
       id="rect3844-0-2-9-2-4-2"
       d="m 519.09467,976.18089 0,63.77951 -63.77971,0 0,-63.77951 z"
       style="fill:#000000;stroke:none"
       inkscape:connector-curvature="0" />
    <path
       id="rect3844-9-88-2"
       d="m 430.51181,178.937 0,63.77953 -63.77953,0 0,-63.77953 z"
       style="fill:#000000;stroke:none"
       inkscape:connector-curvature="0" />
    <path
       id="rect3844-0-2-0-7"
       d="m 430.51181,267.51963 0,63.77953 -63.77953,0 0,-63.77953 z"
       style="fill:#000000;stroke:none"
       inkscape:connector-curvature="0" />
    <path
       id="rect3844-9-7-0-7"
       d="m 430.51181,356.10236 0,63.77953 -63.77953,0 0,-63.77953 z"
       style="fill:#000000;stroke:none"
       inkscape:connector-curvature="0" />
    <path
       id="rect3844-0-2-9-7-9"
       d="m 430.51181,444.68497 0,63.77953 -63.77953,0 0,-63.77953 z"
       style="fill:#000000;stroke:none"
       inkscape:connector-curvature="0" />
    <path
       id="rect3844-9-5-5-3"
       d="m 430.51181,533.26765 0,63.77953 -63.77953,0 0,-63.77953 z"
       style="fill:#000000;stroke:none"
       inkscape:connector-curvature="0" />
    <path
       id="rect3844-0-2-98-2-1"
       d="m 430.5118,621.85033 0,63.77953 -63.77952,0 0,-63.77953 z"
       style="fill:#000000;stroke:none"
       inkscape:connector-curvature="0" />
    <path
       id="rect3844-9-7-7-98-9"
       d="m 430.51181,710.433 0,63.77953 -63.77953,0 0,-63.77953 z"
       style="fill:#000000;stroke:none"
       inkscape:connector-curvature="0" />
    <path
       id="rect3844-0-2-9-2-2-8"
       d="m 430.5118,799.01562 0,63.77953 -63.77952,0 0,-63.77953 z"
       style="fill:#000000;stroke:none"
       inkscape:connector-curvature="0" />
    <path
       id="rect3844-9-7-7-9-8-6"
       d="m 430.51181,887.5983 0,63.77953 -63.77953,0 0,-63.77953 z"
       style="fill:#000000;stroke:none"
       inkscape:connector-curvature="0" />
    <path
       id="rect3844-0-2-9-2-4-2-5"
       d="m 430.51183,976.18097 0,63.77953 -63.77955,0 0,-63.77953 z"
       style="fill:#000000;stroke:none"
       inkscape:connector-curvature="0" />
    <path
       id="rect3844-9-88-2-0"
       d="m 341.92914,178.937 0,63.77953 -63.77953,0 0,-63.77953 z"
       style="fill:#000000;stroke:none"
       inkscape:connector-curvature="0" />
    <path
       id="rect3844-0-2-0-7-2"
       d="m 341.92914,267.51963 0,63.77953 -63.77953,0 0,-63.77953 z"
       style="fill:#000000;stroke:none"
       inkscape:connector-curvature="0" />
    <path
       id="rect3844-9-7-0-7-8"
       d="m 341.92914,356.10236 0,63.77953 -63.77953,0 0,-63.77953 z"
       style="fill:#000000;stroke:none"
       inkscape:connector-curvature="0" />
    <path
       id="rect3844-0-2-9-7-9-6"
       d="m 341.92914,444.685 0,63.77953 -63.77953,0 0,-63.77953 z"
       style="fill:#000000;stroke:none"
       inkscape:connector-curvature="0" />
    <path
       id="rect3844-9-5-5-3-0"
       d="m 341.92914,533.26768 0,63.77953 -63.77953,0 0,-63.77953 z"
       style="fill:#000000;stroke:none"
       inkscape:connector-curvature="0" />
    <path
       id="rect3844-0-2-98-2-1-2"
       d="m 341.92913,621.85033 0,63.77953 -63.77952,0 0,-63.77953 z"
       style="fill:#000000;stroke:none"
       inkscape:connector-curvature="0" />
    <path
       id="rect3844-9-7-7-98-9-4"
       d="m 341.92914,710.433 0,63.77953 -63.77953,0 0,-63.77953 z"
       style="fill:#000000;stroke:none"
       inkscape:connector-curvature="0" />
    <path
       id="rect3844-0-2-9-2-2-8-8"
       d="m 341.92913,799.01562 0,63.77953 -63.77952,0 0,-63.77953 z"
       style="fill:#000000;stroke:none"
       inkscape:connector-curvature="0" />
    <path
       id="rect3844-9-7-7-9-8-6-6"
       d="m 341.92914,887.5983 0,63.77953 -63.77953,0 0,-63.77953 z"
       style="fill:#000000;stroke:none"
       inkscape:connector-curvature="0" />
    <path
       id="rect3844-0-2-9-2-4-2-5-5"
       d="m 341.92916,976.18097 0,63.77953 -63.77955,0 0,-63.77953 z"
       style="fill:#000000;stroke:none"
       inkscape:connector-curvature="0" />
    <path
       id="rect3844-9-88-2-0-0"
       d="m 253.34646,178.937 0,63.77953 -63.77953,0 0,-63.77953 z"
       style="fill:#000000;stroke:none"
       inkscape:connector-curvature="0" />
    <path
       id="rect3844-0-2-0-7-2-9"
       d="m 253.34646,267.51963 0,63.77953 -63.77953,0 0,-63.77953 z"
       style="fill:#000000;stroke:none"
       inkscape:connector-curvature="0" />
    <path
       id="rect3844-9-7-0-7-8-0"
       d="m 253.34646,356.10236 0,63.77953 -63.77953,0 0,-63.77953 z"
       style="fill:#000000;stroke:none"
       inkscape:connector-curvature="0" />
    <path
       id="rect3844-0-2-9-7-9-6-0"
       d="m 253.34646,444.68503 0,63.77953 -63.77953,0 0,-63.77953 z"
       style="fill:#000000;stroke:none"
       inkscape:connector-curvature="0" />
    <path
       id="rect3844-9-5-5-3-0-6"
       d="m 253.34646,533.26771 0,63.77953 -63.77953,0 0,-63.77953 z"
       style="fill:#000000;stroke:none"
       inkscape:connector-curvature="0" />
    <path
       id="rect3844-0-2-98-2-1-2-1"
       d="m 253.34646,621.85039 0,63.77953 -63.77953,0 0,-63.77953 z"
       style="fill:#000000;stroke:none"
       inkscape:connector-curvature="0" />
    <path
       id="rect3844-9-7-7-98-9-4-3"
       d="m 253.34646,710.433 0,63.77953 -63.77953,0 0,-63.77953 z"
       style="fill:#000000;stroke:none"
       inkscape:connector-curvature="0" />
    <path
       id="rect3844-0-2-9-2-2-8-8-8"
       d="m 253.34645,799.01562 0,63.77953 -63.77952,0 0,-63.77953 z"
       style="fill:#000000;stroke:none"
       inkscape:connector-curvature="0" />
    <path
       id="rect3844-9-7-7-9-8-6-6-9"
       d="m 253.34646,887.5983 0,63.77953 -63.77953,0 0,-63.77953 z"
       style="fill:#000000;stroke:none"
       inkscape:connector-curvature="0" />
    <path
       id="rect3844-0-2-9-2-4-2-5-5-3"
       d="m 253.34648,976.18097 0,63.77953 -63.77955,0 0,-63.77953 z"
       style="fill:#000000;stroke:none"
       inkscape:connector-curvature="0" />
    <path
       id="rect3844-9-88-2-0-0-4"
       d="m 164.76378,178.937 0,63.77953 -63.77953,0 0,-63.77953 z"
       style="fill:#000000;stroke:none"
       inkscape:connector-curvature="0" />
    <path
       id="rect3844-0-2-0-7-2-9-4"
       d="m 164.76378,267.5196 0,63.77953 -63.77953,0 0,-63.77953 z"
       style="fill:#000000;stroke:none"
       inkscape:connector-curvature="0" />
    <path
       id="rect3844-9-7-0-7-8-0-6"
       d="m 164.76378,356.10233 0,63.77953 -63.77953,0 0,-63.77953 z"
       style="fill:#000000;stroke:none"
       inkscape:connector-curvature="0" />
    <path
       id="rect3844-0-2-9-7-9-6-0-0"
       d="m 164.76378,444.68503 0,63.77953 -63.77953,0 0,-63.77953 z"
       style="fill:#000000;stroke:none"
       inkscape:connector-curvature="0" />
    <path
       id="rect3844-9-5-5-3-0-6-6"
       d="m 164.76378,533.26771 0,63.77953 -63.77953,0 0,-63.77953 z"
       style="fill:#000000;stroke:none"
       inkscape:connector-curvature="0" />
    <path
       id="rect3844-0-2-98-2-1-2-1-6"
       d="m 164.76378,621.85039 0,63.77953 -63.77953,0 0,-63.77953 z"
       style="fill:#000000;stroke:none"
       inkscape:connector-curvature="0" />
    <path
       id="rect3844-9-7-7-98-9-4-3-1"
       d="m 164.76378,710.43294 0,63.77953 -63.77953,0 0,-63.77953 z"
       style="fill:#000000;stroke:none"
       inkscape:connector-curvature="0" />
    <path
       id="rect3844-0-2-9-2-2-8-8-8-8"
       d="m 164.76377,799.01556 0,63.77953 -63.77952,0 0,-63.77953 z"
       style="fill:#000000;stroke:none"
       inkscape:connector-curvature="0" />
    <path
       id="rect3844-9-7-7-9-8-6-6-9-4"
       d="m 164.76378,887.5983 0,63.77953 -63.77953,0 0,-63.77953 z"
       style="fill:#000000;stroke:none"
       inkscape:connector-curvature="0" />
    <path
       id="rect3844-0-2-9-2-4-2-5-5-3-9"
       d="m 164.7638,976.18097 0,63.77953 -63.77955,0 0,-63.77953 z"
       style="fill:#000000;stroke:none"
       inkscape:connector-curvature="0" />
    <path
       id="rect3844-9-88-2-0-0-4-6"
       d="m 76.181103,178.937 0,63.77953 -63.779528,0 0,-63.77953 z"
       style="fill:#000000;stroke:none"
       inkscape:connector-curvature="0" />
    <path
       id="rect3844-0-2-0-7-2-9-4-3"
       d="m 76.181103,267.51969 0,63.77952 -63.779528,0 0,-63.77952 z"
       style="fill:#000000;stroke:none"
       inkscape:connector-curvature="0" />
    <path
       id="rect3844-9-7-0-7-8-0-6-7"
       d="m 76.181103,356.10233 0,63.77953 -63.779528,0 0,-63.77953 z"
       style="fill:#000000;stroke:none"
       inkscape:connector-curvature="0" />
    <path
       id="rect3844-0-2-9-7-9-6-0-0-8"
       d="m 76.181103,444.68503 0,63.77953 -63.779528,0 0,-63.77953 z"
       style="fill:#000000;stroke:none"
       inkscape:connector-curvature="0" />
    <path
       id="rect3844-9-5-5-3-0-6-6-8"
       d="m 76.181103,533.26771 0,63.77953 -63.779528,0 0,-63.77953 z"
       style="fill:#000000;stroke:none"
       inkscape:connector-curvature="0" />
    <path
       id="rect3844-0-2-98-2-1-2-1-6-2"
       d="m 76.181103,621.85039 0,63.77953 -63.779528,0 0,-63.77953 z"
       style="fill:#000000;stroke:none"
       inkscape:connector-curvature="0" />
    <path
       id="rect3844-9-7-7-98-9-4-3-1-9"
       d="m 76.181103,710.43294 0,63.77953 -63.779528,0 0,-63.77953 z"
       style="fill:#000000;stroke:none"
       inkscape:connector-curvature="0" />
    <path
       id="rect3844-0-2-9-2-2-8-8-8-8-1"
       d="m 76.181092,799.01556 0,63.77953 -63.779517,0 0,-63.77953 z"
       style="fill:#000000;stroke:none"
       inkscape:connector-curvature="0" />
    <path
       id="rect3844-9-7-7-9-8-6-6-9-4-3"
       d="m 76.181103,887.5983 0,63.77953 -63.779528,0 0,-63.77953 z"
       style="fill:#000000;stroke:none"
       inkscape:connector-curvature="0" />
    <path
       id="rect3844-0-2-9-2-4-2-5-5-3-9-5"
       d="m 76.181124,976.18097 0,63.77953 -63.779549,0 0,-63.77953 z"
       style="fill:#000000;stroke:none"
       inkscape:connector-curvature="0" />
  </g>
</svg>
